<svg id="design" xmlns="http://www.w3.org/2000/svg" viewBox="0 0 760 760"><defs><style>#design-circle .cls-1{fill:#00e5ff;}.cls-2{fill:#fff;}</style></defs><title>design</title><g id="design-circle"><circle class="cls-1" cx="380" cy="380" r="380"/></g><g id="design-icon"><path class="cls-2" d="M593.55,589.33,177.11,172.89a6.91,6.91,0,0,0-11.8,4.89V594.21a6.91,6.91,0,0,0,6.91,6.91H588.66a6.91,6.91,0,0,0,4.88-11.8Zm-82.74-2h0v-22.6a6.91,6.91,0,1,0-13.82,0V587.3H455.53V564.73a6.91,6.91,0,1,0-13.82,0V587.3H400.25V564.73a6.91,6.91,0,1,0-13.82,0V587.3H345V564.73a6.91,6.91,0,1,0-13.82,0V587.3H289.7V564.73a6.91,6.91,0,1,0-13.82,0V587.3H234.42V564.73a6.91,6.91,0,0,0-13.82,0V587.3H179.14V194.46L572,587.3H510.81Z"/><path class="cls-2" d="M460.87,534,232.38,306.34a6.91,6.91,0,0,0-11.79,4.89v227.7a6.91,6.91,0,0,0,6.91,6.91H456a6.91,6.91,0,0,0,4.88-11.8Zm-226.45-2V327.88L439.27,532Z"/><path class="cls-2" d="M317.15,349.79,214,246.6a6.91,6.91,0,0,0-9.77,9.77L307.38,359.56a6.91,6.91,0,0,0,9.77-9.77Z"/><path class="cls-2" d="M354,390.32,335.58,371.9a6.91,6.91,0,1,0-10,9.56l.21.21,18.43,18.43a6.91,6.91,0,0,0,10-9.56l-.21-.21Z"/><path class="cls-2" d="M593.55,399.06,541.43,347,382,187.48h0l-.1-.09a4.48,4.48,0,0,0-.4-.36l-.19-.14-.35-.26-.26-.16-.32-.19-.33-.16-.28-.13-.41-.15-.23-.08-.51-.13h-.15l-91.08-18.21a6.68,6.68,0,0,0-.78-.12h-1.33l-.42.06h-.15a6.87,6.87,0,0,0-1.52.46l-.12.06-.41.2-.17.1-.17.1-.23.14-.24.17h0l-.14.1-.12.09-.19.17-.31.29-.12.13c-.11.12-.23.24-.33.37l-.06.08h0l-.11.14-.23.31h0l-.1.17-.1.16-.12.2v.06l-.15.32-.06.12v.09a6.88,6.88,0,0,0-.24.66h0a6.93,6.93,0,0,0-.17.72V173a1.19,1.19,0,0,1,0,.38c0,.13,0,.14,0,.21v1.15a6.77,6.77,0,0,0,.11.74l18.22,91.1h0a1.83,1.83,0,0,0,.09.39,4.13,4.13,0,0,0,.13.43l.14.39.1.22a4,4,0,0,0,.17.36l.12.21a4.06,4.06,0,0,0,.21.35l.13.2.25.35.14.17.31.35.09.1L458.69,429.68l52.12,52.12a6.91,6.91,0,0,0,9.77,0l73-73a6.91,6.91,0,0,0,0-9.77ZM377,202.11,526.77,351.83l-13.68,13.68L363.37,215.79ZM503.32,375.28,487,391.57,337.31,241.85l8.13-8.13h0l8.14-8.14ZM297.91,199.17l-3.25-16.26,4.55.91,11.72,2.34Zm3.26,16.29,26-26L363,196.58l-27.35,27.35h0l-13,13h0l-14.32,14.32Zm12.69,49.85,13.68-13.68L477.26,401.34,463.58,415ZM515.7,467.14l-42.35-42.35,18.57-18.57,44.63-44.63,42.35,42.35Z"/><path class="cls-2" d="M556.69,401.38,538.27,383a6.91,6.91,0,1,0-10,9.56l.21.21,18.43,18.43a6.91,6.91,0,0,0,9.77-9.77Z"/><path class="cls-2" d="M593.55,249.1,541.43,197l-26.06-26.06a25.37,25.37,0,0,0-35.83,0l-23.45,23.45a25.37,25.37,0,0,0,0,35.83l26.06,26.06,52.12,52.12a6.91,6.91,0,0,0,9.77,0l49.51-49.51a6.91,6.91,0,0,0,0-9.77ZM465.86,220.43a11.53,11.53,0,0,1,0-16.28l23.45-23.45a11.53,11.53,0,0,1,16.29,0l21.17,21.17L487,241.6Zm73.29,73.29L496.8,251.38l39.74-39.74L578.89,254Z"/><path class="cls-2" d="M562.28,249.1l-20.85-20.85a6.91,6.91,0,0,0-10,9.56l.21.21,20.85,20.85a6.91,6.91,0,1,0,10-9.56l-.21-.21Z"/></g></svg>