<svg xmlns="http://www.w3.org/2000/svg" viewBox="0 0 760 760"><defs><style>.cls-1{fill:#ff9100;}.cls-2{fill:#fff;}</style></defs><title>gaming-color</title><g id="circle"><circle class="cls-1" cx="380" cy="380" r="380"/></g><g id="icon"><path class="cls-2" d="M536.27,126.32H224.62a11.13,11.13,0,0,0-11.13,11.13V627.19a11.13,11.13,0,0,0,11.13,11.13H426.45A120.4,120.4,0,0,0,493.6,618a11.13,11.13,0,1,0-12.37-18.51,98.2,98.2,0,0,1-54.78,16.58H235.75V148.58H525.14V517.37a98.36,98.36,0,0,1-6,33.85,11.13,11.13,0,1,0,20.91,7.64,120.59,120.59,0,0,0,7.3-41.49V137.45A11.13,11.13,0,0,0,536.27,126.32Z"/><path class="cls-2" d="M519.62,576.46a11.14,11.14,0,1,0,1.47,16.2c.16-.18.33-.38.48-.58A11.13,11.13,0,0,0,519.62,576.46Z"/><path class="cls-2" d="M497.31,159.71H263.57a11.13,11.13,0,0,0-11.13,11.13V382.32a11.13,11.13,0,0,0,11.13,11.13H497.31a11.13,11.13,0,0,0,11.13-11.13V170.84A11.13,11.13,0,0,0,497.31,159.71ZM486.18,371.19H274.7V182H486.18Z"/><path class="cls-2" d="M353.17,466H336.29V449.1A11.13,11.13,0,0,0,325.16,438h-33A11.13,11.13,0,0,0,281,449.1V466H264.13A11.13,11.13,0,0,0,253,477.11v33a11.13,11.13,0,0,0,11.13,11.13H281v16.88a11.13,11.13,0,0,0,11.13,11.13h33a11.13,11.13,0,0,0,11.13-11.13V521.26h16.88a11.13,11.13,0,0,0,11.13-11.13v-33A11.13,11.13,0,0,0,353.17,466ZM342,499H325.16A11.13,11.13,0,0,0,314,510.13V527H303.27V510.13A11.13,11.13,0,0,0,292.14,499H275.26V488.24h16.88a11.13,11.13,0,0,0,11.13-11.13V460.23H314v16.88a11.13,11.13,0,0,0,11.13,11.13H342V499Z"/><path class="cls-2" d="M469.28,438a33.25,33.25,0,1,0,33.25,33.25A33.29,33.29,0,0,0,469.28,438Zm0,44.24a11,11,0,1,1,11-11A11,11,0,0,1,469.28,482.28Z"/><path class="cls-2" d="M424.9,505a33.25,33.25,0,1,0,33.25,33.25A33.29,33.29,0,0,0,424.9,505Zm0,44.24a11,11,0,1,1,11-11A11,11,0,0,1,424.9,549.21Z"/></g></svg>