<svg xmlns="http://www.w3.org/2000/svg" viewBox="0 0 760 760"><defs><style>.cls-1{fill:#ffea00;}.cls-2{fill:#fff;}</style></defs><title>mobile-color</title><g id="circle"><circle class="cls-1" cx="380" cy="380" r="380"/></g><g id="icon"><path class="cls-2" d="M482.86,131.62H275.14a36.38,36.38,0,0,0-36.32,36.32V590.05a36.38,36.38,0,0,0,36.32,36.33H482.85a36.38,36.38,0,0,0,36.33-36.32V167.94A36.38,36.38,0,0,0,482.86,131.62Zm-227.55,66H502.69V510.94H255.31Zm19.83-49.48H482.85a19.86,19.86,0,0,1,19.84,19.83v13.15H255.31V167.94A19.86,19.86,0,0,1,275.14,148.11ZM482.86,609.89H275.14a19.86,19.86,0,0,1-19.83-19.83V527.43H502.69v62.63A19.86,19.86,0,0,1,482.86,609.89Z"/><path class="cls-2" d="M379,535.68a33,33,0,1,0,33,33A33,33,0,0,0,379,535.68Zm0,49.48a16.49,16.49,0,1,1,16.49-16.49A16.51,16.51,0,0,1,379,585.15Z"/><path class="cls-2" d="M346,172.85h33a8.25,8.25,0,0,0,0-16.49H346a8.25,8.25,0,0,0,0,16.49Z"/><path class="cls-2" d="M403.74,172.85H412a8.25,8.25,0,1,0,0-16.49h-8.25a8.25,8.25,0,1,0,0,16.49Z"/><path class="cls-2" d="M598.45,169.29A8.24,8.24,0,1,0,586.79,181a79.11,79.11,0,0,1,0,111.75,8.24,8.24,0,1,0,11.66,11.66A95.62,95.62,0,0,0,598.45,169.29Z"/><path class="cls-2" d="M563.72,188.06a8.24,8.24,0,0,0-11.66,11.66,54.16,54.16,0,0,1,0,76.5,8.24,8.24,0,1,0,11.66,11.66,70.64,70.64,0,0,0,0-99.82Z"/><path class="cls-2" d="M171.21,181a8.24,8.24,0,1,0-11.66-11.66,95.62,95.62,0,0,0,0,135.07,8.24,8.24,0,1,0,11.66-11.66A79.1,79.1,0,0,1,171.21,181Z"/><path class="cls-2" d="M205.94,185.78a8.24,8.24,0,0,0-11.66,0,70.64,70.64,0,0,0,0,99.82,8.24,8.24,0,1,0,11.66-11.66,54.16,54.16,0,0,1,0-76.5A8.25,8.25,0,0,0,205.94,185.78Z"/></g></svg>