<?xml version="1.0" encoding="utf-8"?>
<!-- Generator: Adobe Illustrator 21.1.0, SVG Export Plug-In . SVG Version: 6.00 Build 0)  -->
<svg version="1.1" id="some" xmlns="http://www.w3.org/2000/svg" xmlns:xlink="http://www.w3.org/1999/xlink" x="0px" y="0px"
	 viewBox="0 0 760 760" style="enable-background:new 0 0 760 760;" xml:space="preserve">
<style type="text/css">
	.st0{fill:#D500F9;}
	.st1{fill:#FFFFFF;}
</style>
<title>some-color</title>
<g id="some-circle">
	<circle class="st0" cx="380" cy="380" r="380"/>
</g>
<g id="some-icon">
	<path class="st1" d="M558.4,436.3c46-32.9,73.3-84,73.3-138.2c0-96-83.9-174.1-187-174.1c-60.7,0-117.4,27.3-152.5,73.3H136.4
		c-4.5,0-8.1,3.6-8.1,8.1l0,0V546c0,4.5,3.6,8.1,8.1,8.1h0h60.9v73.8c0,4.5,3.6,8.1,8.1,8.1c2.1,0,4.1-0.8,5.6-2.3l81.7-79.6h145.5
		c4.5,0,8.1-3.6,8.1-8.1l0,0v-73.9c15.1-0.1,30.2-1.9,44.9-5.4l82.1,30.8c4.2,1.6,8.8-0.5,10.4-4.7c0.8-2.1,0.7-4.4-0.3-6.5
		L558.4,436.3z M430.1,537.9H289.5c-2.1,0-4.1,0.8-5.6,2.3l-70.4,68.5V546c0-4.5-3.6-8.1-8.1-8.1h0h-60.9V213.5h136.7
		c-9.8,16.3-16.7,34.2-20.4,52.8h-64.1c-4.5,0-8.1,3.6-8.1,8.1v25.9c0,4.5,3.6,8.1,8.1,8.1H258c0.9,15.1,4,30,9,44.2h-70.2
		c-4.5,0-8.1,3.6-8.1,8.1v25.9c0,4.5,3.6,8.1,8.1,8.1H289c12.4,17.3,27.8,32.3,45.5,44.2H196.8c-4.5,0-8.1,3.6-8.1,8.1v25.9
		c0,4.5,3.6,8.1,8.1,8.1h181.1c4.5,0,8.1-3.6,8.1-8.1v-9.3c14.4,4.4,29.2,7.2,44.2,8.2L430.1,537.9L430.1,537.9z M258.4,282.5
		c-0.3,3.2-0.5,6.5-0.7,9.7h-52.9v-9.7H258.4z M273.7,368.7c1.6,3.3,3.2,6.5,5,9.7h-73.9v-9.7H273.7z M363.5,454.9
		c2.1,0.9,4.2,1.8,6.3,2.7v7H204.8v-9.7H363.5z M494.5,450.7c-1.5-0.6-3.2-0.7-4.8-0.3c-14.7,3.7-29.9,5.6-45.1,5.6
		c-1.9,0-3.8,0-6.2-0.1l0,0c-19.8-0.6-39.3-4.5-57.8-11.4c-4.1-1.5-8.1-3.2-12.1-5c-27.7-12.6-51.4-32.5-68.7-57.5l0,0l0,0l0,0
		c-5.3-7.7-9.8-15.9-13.6-24.5l0,0v-0.1l0,0c-7.9-18-12.2-37.5-12.4-57.2l0,0v-0.7c0-0.4,0-0.9,0-1.3c0-7.5,0.6-15,1.7-22.5l0,0
		c3.7-23.7,13-46.1,27.2-65.5c31.9-43.8,84.9-70,141.9-70c94.2,0,170.9,70.8,170.9,157.9c0,51-26.9,99.1-72,128.8
		c-3.4,2.2-4.6,6.7-2.8,10.4l19,37.9L494.5,450.7z"/>
	<path class="st1" d="M583.8,236.1c-2.1-3.9-7-5.4-10.9-3.3s-5.4,7-3.3,10.9c9,16.7,13.7,35.4,13.7,54.4c0,4.5,3.6,8.1,8.1,8.1
		c4.5,0,8.1-3.6,8.1-8.1C599.4,276.4,594,255.1,583.8,236.1z"/>
	<path class="st1" d="M555.9,199.6c-29.4-27.9-68.9-43.3-111.2-43.3c-4.5,0-8.1,3.6-8.1,8.1c0,4.5,3.6,8.1,8.1,8.1
		c38.1,0,73.6,13.8,100.1,38.8c3.2,3.1,8.4,2.9,11.4-0.3C559.2,207.8,559.1,202.7,555.9,199.6L555.9,199.6L555.9,199.6z"/>
	<path class="st1" d="M436,279.2c-17.6,0-31.8,14.2-31.8,31.8s14.2,31.8,31.8,31.8s31.8-14.2,31.8-31.8c0,0,0,0,0,0
		C467.8,293.5,453.6,279.2,436,279.2z M436,326.6c-8.6,0-15.6-7-15.6-15.6c0-8.6,7-15.6,15.6-15.6c8.6,0,15.6,7,15.6,15.6
		C451.7,319.6,444.7,326.6,436,326.6L436,326.6z"/>
	<path class="st1" d="M522.3,279.2c-17.6,0-31.8,14.2-31.8,31.8s14.2,31.8,31.8,31.8c17.6,0,31.8-14.2,31.8-31.8c0,0,0,0,0,0
		C554.1,293.5,539.8,279.2,522.3,279.2z M522.3,326.6c-8.6,0-15.6-7-15.6-15.6c0-8.6,7-15.6,15.6-15.6c8.6,0,15.6,7,15.6,15.6
		C537.9,319.6,530.9,326.6,522.3,326.6L522.3,326.6z"/>
	<path class="st1" d="M349.8,279.2c-17.6,0-31.8,14.2-31.8,31.8s14.2,31.8,31.8,31.8s31.8-14.2,31.8-31.8c0,0,0,0,0,0
		C381.6,293.5,367.4,279.2,349.8,279.2z M349.8,326.6c-8.6,0-15.6-7-15.6-15.6c0-8.6,7-15.6,15.6-15.6c8.6,0,15.6,7,15.6,15.6
		C365.4,319.6,358.5,326.6,349.8,326.6L349.8,326.6z"/>
</g>
</svg>
