<svg xmlns="http://www.w3.org/2000/svg" viewBox="0 0 760 760"><defs><style>.cls-1{fill:#d500f9;}.cls-2{fill:#fff;}</style></defs><title>some-color</title><g id="circle"><circle class="cls-1" cx="380" cy="380" r="380"/></g><g id="icon"><path class="cls-2" d="M558.39,436.29c46-32.87,73.3-84,73.3-138.21,0-96-83.89-174.08-187-174.08C384,124,327.3,151.33,292.19,197.3H136.4a8.08,8.08,0,0,0-8.08,8.08V546a8.08,8.08,0,0,0,8.08,8.08h60.9v73.84A8.08,8.08,0,0,0,211,633.71l81.72-79.63H438.21a8.08,8.08,0,0,0,8.08-8.08V472.14a200.71,200.71,0,0,0,44.92-5.42l82.13,30.8a8.08,8.08,0,0,0,10.07-11.18ZM430.12,537.91H289.46a8.09,8.09,0,0,0-5.64,2.29l-70.35,68.55V546a8.08,8.08,0,0,0-8.08-8.08h-60.9V213.47H281.22a167.1,167.1,0,0,0-20.41,52.82H196.76a8.08,8.08,0,0,0-8.08,8.08v25.87a8.08,8.08,0,0,0,8.08,8.08H258a162.38,162.38,0,0,0,9,44.19H196.76a8.08,8.08,0,0,0-8.08,8.08v25.87a8.08,8.08,0,0,0,8.08,8.08H289a180.86,180.86,0,0,0,45.47,44.19H196.76a8.08,8.08,0,0,0-8.08,8.08V472.7a8.08,8.08,0,0,0,8.08,8.08H377.84a8.08,8.08,0,0,0,8.08-8.08v-9.32a198.06,198.06,0,0,0,44.19,8.24v66.29ZM258.44,282.45c-.31,3.23-.55,6.47-.67,9.7H204.84v-9.7Zm15.26,86.23q2.35,4.92,5,9.7H204.84v-9.7Zm89.76,86.23q3.12,1.4,6.3,2.7v7H204.84v-9.7Zm131.08-4.21a8.09,8.09,0,0,0-4.82-.27A184.42,184.42,0,0,1,444.67,456c-1.86,0-3.83,0-6.2-.11h0a181.82,181.82,0,0,1-57.8-11.35c-4.07-1.52-8.13-3.21-12.1-5A167.38,167.38,0,0,1,299.91,382h0v0h0a153.79,153.79,0,0,1-13.56-24.47h0l0-.09h0a146.74,146.74,0,0,1-12.43-57.23h0v-.74c0-.43,0-.87,0-1.3a148,148,0,0,1,1.73-22.48h0a149.08,149.08,0,0,1,27.2-65.46c31.85-43.81,84.9-70,141.91-70,94.21,0,170.85,70.84,170.85,157.91,0,51-26.9,99.15-72,128.77a8.08,8.08,0,0,0-2.79,10.37l19,37.92Z"/><path class="cls-2" d="M583.76,236.08a8.08,8.08,0,0,0-14.27,7.6,114.56,114.56,0,0,1,13.69,54.4,8.08,8.08,0,0,0,16.17,0A130.56,130.56,0,0,0,583.76,236.08Z"/><path class="cls-2" d="M555.87,199.63c-29.44-27.91-68.93-43.29-111.19-43.29a8.08,8.08,0,0,0,0,16.17c38.1,0,73.64,13.8,100.07,38.85a8.08,8.08,0,0,0,11.12-11.73Z"/><path class="cls-2" d="M436.05,279.22a31.8,31.8,0,1,0,31.8,31.8A31.83,31.83,0,0,0,436.05,279.22Zm0,47.43A15.63,15.63,0,1,1,451.68,311,15.65,15.65,0,0,1,436.05,326.64Z"/><path class="cls-2" d="M522.28,279.22a31.8,31.8,0,1,0,31.8,31.8A31.83,31.83,0,0,0,522.28,279.22Zm0,47.43A15.63,15.63,0,1,1,537.91,311,15.65,15.65,0,0,1,522.28,326.64Z"/><path class="cls-2" d="M349.82,279.22a31.8,31.8,0,1,0,31.8,31.8A31.83,31.83,0,0,0,349.82,279.22Zm0,47.43A15.63,15.63,0,1,1,365.45,311,15.65,15.65,0,0,1,349.82,326.64Z"/></g></svg>