<svg id="some" xmlns="http://www.w3.org/2000/svg" viewBox="0 0 760 760"><defs><style>#some-circle .cls-1{fill:#d500f9;}.cls-2{fill:#fff;}</style></defs><title>some</title><g id="some-circle"><circle class="cls-1" cx="380" cy="380" r="380"/></g><g id="some-icon"><path class="cls-2" d="M558.4,436.3c46-32.9,73.3-84,73.3-138.2,0-96-83.9-174.1-187-174.1-60.7,0-117.4,27.3-152.5,73.3H136.4a8.07,8.07,0,0,0-8.1,8.1h0V546a8.07,8.07,0,0,0,8.1,8.1h60.9v73.8a8.07,8.07,0,0,0,8.1,8.1,7.87,7.87,0,0,0,5.6-2.3l81.7-79.6H438.2a8.07,8.07,0,0,0,8.1-8.1h0V472.1a199.78,199.78,0,0,0,44.9-5.4l82.1,30.8a8,8,0,0,0,10.4-4.7,8.19,8.19,0,0,0-.3-6.5ZM430.1,537.9H289.5a7.87,7.87,0,0,0-5.6,2.3l-70.4,68.5V546a8.07,8.07,0,0,0-8.1-8.1H144.5V213.5H281.2a165.05,165.05,0,0,0-20.4,52.8H196.7a8.07,8.07,0,0,0-8.1,8.1v25.9a8.07,8.07,0,0,0,8.1,8.1H258a162.38,162.38,0,0,0,9,44.2H196.8a8.07,8.07,0,0,0-8.1,8.1v25.9a8.07,8.07,0,0,0,8.1,8.1H289a178.69,178.69,0,0,0,45.5,44.2H196.8a8.07,8.07,0,0,0-8.1,8.1v25.9a8.07,8.07,0,0,0,8.1,8.1H377.9a8.07,8.07,0,0,0,8.1-8.1v-9.3a195.77,195.77,0,0,0,44.2,8.2l-.1,66.1ZM258.4,282.5c-.3,3.2-.5,6.5-.7,9.7H204.8v-9.7Zm15.3,86.2c1.6,3.3,3.2,6.5,5,9.7H204.8v-9.7Zm89.8,86.2,6.3,2.7v7h-165v-9.7Zm131-4.2a7.86,7.86,0,0,0-4.8-.3,185.1,185.1,0,0,1-45.1,5.6c-1.9,0-3.8,0-6.2-.1h0a181.06,181.06,0,0,1-57.8-11.4c-4.1-1.5-8.1-3.2-12.1-5A168.34,168.34,0,0,1,299.8,382h0a150,150,0,0,1-13.6-24.5h0v-.1h0a146.29,146.29,0,0,1-12.4-57.2h0v-2a154.93,154.93,0,0,1,1.7-22.5h0a149.9,149.9,0,0,1,27.2-65.5c31.9-43.8,84.9-70,141.9-70,94.2,0,170.9,70.8,170.9,157.9,0,51-26.9,99.1-72,128.8a8.16,8.16,0,0,0-2.8,10.4l19,37.9Z"/><path class="cls-2" d="M583.8,236.1a8.05,8.05,0,1,0-14.2,7.6,114.67,114.67,0,0,1,13.7,54.4,8.1,8.1,0,1,0,16.2,0A132.39,132.39,0,0,0,583.8,236.1Z"/><path class="cls-2" d="M555.9,199.6c-29.4-27.9-68.9-43.3-111.2-43.3a8.1,8.1,0,0,0,0,16.2c38.1,0,73.6,13.8,100.1,38.8a8.06,8.06,0,0,0,11.4-.3,8.15,8.15,0,0,0-.3-11.4Z"/><path class="cls-2" d="M436,279.2A31.8,31.8,0,1,0,467.8,311h0A31.82,31.82,0,0,0,436,279.2Zm0,47.4A15.6,15.6,0,1,1,451.6,311,15.62,15.62,0,0,1,436,326.6Z"/><path class="cls-2" d="M522.3,279.2A31.8,31.8,0,1,0,554.1,311h0A31.88,31.88,0,0,0,522.3,279.2Zm0,47.4A15.6,15.6,0,1,1,537.9,311a15.62,15.62,0,0,1-15.6,15.6Z"/><path class="cls-2" d="M349.8,279.2A31.8,31.8,0,1,0,381.6,311h0A31.82,31.82,0,0,0,349.8,279.2Zm0,47.4A15.6,15.6,0,1,1,365.4,311a15.62,15.62,0,0,1-15.6,15.6Z"/></g></svg>