<svg xmlns="http://www.w3.org/2000/svg" viewBox="0 0 760 760"><defs><style>.cls-1{fill:#ff1744;}.cls-2{fill:#fff;}</style></defs><title>web-color</title><g id="circle"><circle class="cls-1" cx="380" cy="380" r="380"/></g><g id="icon"><path class="cls-2" d="M380,124c-141.38,0-256,114.61-256,256S238.62,636,380,636,636,521.39,636,380,521.38,124,380,124Zm-99.09,60a225.69,225.69,0,0,0-13.14,20.48,275.22,275.22,0,0,0-17,35.88Q234.9,236,219.19,230.5A220.94,220.94,0,0,1,280.91,184Zm-88.26,81.42q22.52,8.45,45.41,14.83a401.87,401.87,0,0,0-11.48,78.88H161.32A218.18,218.18,0,0,1,192.66,265.38Zm0,229.23a218.15,218.15,0,0,1-31.34-93.71h65.27a402,402,0,0,0,11.48,78.88Q215.2,486.17,192.66,494.62Zm26.53,34.88q15.7-5.45,31.59-9.82a275.4,275.4,0,0,0,17,35.88A225.58,225.58,0,0,0,280.91,576,221,221,0,0,1,219.19,529.5Zm139.9,59.33c-26.77-10-50.49-38.85-67-78.63a485,485,0,0,1,67-7.61Zm0-128.15a526.38,526.38,0,0,0-80.24,9.44,361.14,361.14,0,0,1-10.39-69.21h90.63Zm0-101.59H268.47a361.14,361.14,0,0,1,10.39-69.21,526.2,526.2,0,0,0,80.24,9.44Zm0-101.68a485,485,0,0,1-67-7.61c16.53-39.78,40.25-68.59,67-78.63Zm208.25,8a218.14,218.14,0,0,1,31.34,93.71H533.41a401.92,401.92,0,0,0-11.48-78.88Q544.8,273.84,567.34,265.39Zm-26.53-34.88q-15.7,5.45-31.59,9.83a275.25,275.25,0,0,0-17-35.89A226.15,226.15,0,0,0,479.09,184,221,221,0,0,1,540.81,230.51ZM400.91,171.17c26.77,10,50.49,38.85,67,78.64a485,485,0,0,1-67,7.61Zm0,128.15a526.31,526.31,0,0,0,80.24-9.44,361.1,361.1,0,0,1,10.39,69.21H400.91V299.32Zm0,101.58h90.63a361.1,361.1,0,0,1-10.39,69.21,526.31,526.31,0,0,0-80.24-9.44V400.91Zm0,187.92V502.59a484.92,484.92,0,0,1,67,7.61C451.4,550,427.68,578.79,400.91,588.83ZM479.09,576a225.39,225.39,0,0,0,13.14-20.48,275.3,275.3,0,0,0,17-35.88q15.88,4.37,31.59,9.83A221,221,0,0,1,479.09,576Zm88.26-81.42q-22.52-8.46-45.41-14.83a402,402,0,0,0,11.48-78.88h65.27A218.17,218.17,0,0,1,567.34,494.61Z"/></g></svg>