<?xml version="1.0" encoding="utf-8"?>
<!-- Generator: Adobe Illustrator 21.1.0, SVG Export Plug-In . SVG Version: 6.00 Build 0)  -->
<svg version="1.1" id="Layer_1" xmlns="http://www.w3.org/2000/svg" xmlns:xlink="http://www.w3.org/1999/xlink" x="0px" y="0px"
	 viewBox="0 0 760 760" style="enable-background:new 0 0 760 760;" xml:space="preserve">
<style type="text/css">
	.st0{fill:#FF1744;}
	.st1{fill:#FFFFFF;}
</style>
<title>web-color</title>
<g id="web-circle">
	<circle class="st0" cx="380" cy="380" r="380"/>
</g>
<g id="web-icon">
	<path class="st1" d="M380,124c-141.4,0-256,114.6-256,256s114.6,256,256,256s256-114.6,256-256S521.4,124,380,124z M280.9,184
		c-4.7,6.6-9.1,13.4-13.1,20.5c-6.5,11.5-12.2,23.5-17,35.9c-10.6-2.9-21.1-6.2-31.6-9.9C236.9,211.5,257.8,195.8,280.9,184z
		 M192.6,265.4c15,5.6,30.2,10.6,45.4,14.8c-6.4,25.8-10.3,52.3-11.5,78.9h-65.3C164.5,325.9,175.2,293.8,192.6,265.4L192.6,265.4z
		 M192.6,494.6c-17.5-28.4-28.2-60.5-31.3-93.7h65.3c1.2,26.6,5,53,11.5,78.9C222.8,484.1,207.7,489,192.6,494.6L192.6,494.6z
		 M219.2,529.5c10.5-3.6,21-6.9,31.6-9.8c4.8,12.4,10.5,24.3,17,35.9c4,7,8.4,13.8,13.1,20.4C257.8,564.2,236.9,548.5,219.2,529.5
		L219.2,529.5z M359.1,588.9c-26.8-10-50.5-38.8-67-78.6c22.1-4.1,44.5-6.6,67-7.6V588.9z M359.1,460.7c-26.9,1.1-53.8,4.2-80.2,9.4
		c-5.7-22.7-9.2-45.9-10.4-69.2h90.6V460.7z M359.1,359.1h-90.6c1.2-23.4,4.7-46.5,10.4-69.2c26.5,5.2,53.3,8.4,80.2,9.4
		L359.1,359.1z M359.1,257.4c-22.5-1-44.9-3.5-67-7.6c16.5-39.8,40.2-68.6,67-78.6V257.4z M567.3,265.4
		c17.5,28.4,28.2,60.5,31.3,93.7h-65.3c-1.2-26.6-5-53-11.5-78.9C537.2,276,552.3,271,567.3,265.4L567.3,265.4z M540.8,230.6
		c-10.5,3.6-21,6.9-31.6,9.8c-4.8-12.4-10.5-24.4-17-35.9c-4-7.1-8.4-13.9-13.1-20.5C502.2,195.8,523.1,211.5,540.8,230.6
		L540.8,230.6z M400.9,171.2c26.8,10,50.5,38.8,67,78.6c-22.1,4.1-44.5,6.6-67,7.6V171.2z M400.9,299.3c26.9-1.1,53.8-4.2,80.2-9.4
		c5.7,22.7,9.2,45.9,10.4,69.2h-90.6V299.3z M400.9,400.9h90.6c-1.2,23.4-4.7,46.5-10.4,69.2c-26.5-5.2-53.3-8.4-80.2-9.4V400.9
		L400.9,400.9z M400.9,588.8v-86.2c22.5,1,44.9,3.5,67,7.6C451.4,550,427.7,578.8,400.9,588.8L400.9,588.8z M479.1,576
		c4.7-6.6,9.1-13.4,13.1-20.5c6.5-11.5,12.2-23.5,17-35.9c10.6,2.9,21.1,6.2,31.6,9.8C523.1,548.5,502.2,564.2,479.1,576z
		 M567.3,494.6c-15-5.6-30.2-10.6-45.4-14.8c6.4-25.8,10.3-52.3,11.5-78.9h65.3C595.5,434.1,584.8,466.2,567.3,494.6L567.3,494.6z"
		/>
</g>
</svg>
