<svg id="web" xmlns="http://www.w3.org/2000/svg" viewBox="0 0 760 760"><defs><style>#web-circle .cls-1{fill:#ff1744;}.cls-2{fill:#fff;}</style></defs><title>web</title><g id="web-circle"><circle class="cls-1" cx="380" cy="380" r="380"/></g><g id="web-icon"><path class="cls-2" d="M380,124c-141.4,0-256,114.6-256,256S238.6,636,380,636,636,521.4,636,380,521.4,124,380,124Zm-99.1,60a229.81,229.81,0,0,0-13.1,20.5,274.05,274.05,0,0,0-17,35.9c-10.6-2.9-21.1-6.2-31.6-9.9A222.77,222.77,0,0,1,280.9,184Zm-88.3,81.4c15,5.6,30.2,10.6,45.4,14.8a403.79,403.79,0,0,0-11.5,78.9H161.2a221.34,221.34,0,0,1,31.4-93.7Zm0,229.2a217.16,217.16,0,0,1-31.3-93.7h65.3a397.44,397.44,0,0,0,11.5,78.9c-15.3,4.3-30.4,9.2-45.5,14.8Zm26.6,34.9c10.5-3.6,21-6.9,31.6-9.8a280.28,280.28,0,0,0,17,35.9c4,7,8.4,13.8,13.1,20.4a222.77,222.77,0,0,1-61.7-46.5Zm139.9,59.4c-26.8-10-50.5-38.8-67-78.6a485.52,485.52,0,0,1,67-7.6Zm0-128.2a527,527,0,0,0-80.2,9.4,360.44,360.44,0,0,1-10.4-69.2h90.6v59.8Zm0-101.6H268.5a359.28,359.28,0,0,1,10.4-69.2,516.07,516.07,0,0,0,80.2,9.4Zm0-101.7a485.52,485.52,0,0,1-67-7.6c16.5-39.8,40.2-68.6,67-78.6Zm208.2,8a217.16,217.16,0,0,1,31.3,93.7H533.3a397.44,397.44,0,0,0-11.5-78.9c15.4-4.2,30.5-9.2,45.5-14.8Zm-26.5-34.8c-10.5,3.6-21,6.9-31.6,9.8a274.05,274.05,0,0,0-17-35.9A229.81,229.81,0,0,0,479.1,184a221.18,221.18,0,0,1,61.7,46.6ZM400.9,171.2c26.8,10,50.5,38.8,67,78.6a485.52,485.52,0,0,1-67,7.6Zm0,128.1a527,527,0,0,0,80.2-9.4,360.44,360.44,0,0,1,10.4,69.2H400.9V299.3Zm0,101.6h90.6a359.28,359.28,0,0,1-10.4,69.2,516.07,516.07,0,0,0-80.2-9.4V400.9Zm0,187.9V502.6a485.52,485.52,0,0,1,67,7.6c-16.5,39.8-40.2,68.6-67,78.6ZM479.1,576a229.81,229.81,0,0,0,13.1-20.5,274.05,274.05,0,0,0,17-35.9c10.6,2.9,21.1,6.2,31.6,9.8A221.18,221.18,0,0,1,479.1,576Zm88.2-81.4c-15-5.6-30.2-10.6-45.4-14.8a403.79,403.79,0,0,0,11.5-78.9h65.3a218.63,218.63,0,0,1-31.4,93.7Z"/></g></svg>